<svg xmlns="http://www.w3.org/2000/svg" viewBox="0 0 96.32 74" style="fill:#cf7e2d"><rect width="96.32" height="8"/><path d="M96.32,55.54H67.11a11,11,0,0,0,3.26-10,7.12,7.12,0,0,0,1.39.14c3.32,0,10.67-2.35,12.27-6.15h4.81a1.5,1.5,0,0,0,0-3H84c-1.6-3.81-9-6.15-12.27-6.15a8,8,0,0,0-1.39.13,11,11,0,0,0-3.26-10H96.32v-3H59.2l-.27,0a31.81,31.81,0,0,0-11.14,3.26,33.06,33.06,0,0,0-10-3.14,1.46,1.46,0,0,0-.63-.14H0v3H28.47a11,11,0,0,0-3.45,8,10.53,10.53,0,0,0,.2,2,7.69,7.69,0,0,0-1.6-.17c-3.32,0-10.66,2.34-12.27,6.15H6.56a1.5,1.5,0,0,0,0,3h4.79c1.61,3.8,9,6.15,12.27,6.15a7.69,7.69,0,0,0,1.6-.17,10.53,10.53,0,0,0-.2,2,11,11,0,0,0,3.45,8H0v3H37.19a1.46,1.46,0,0,0,.63-.14,33.06,33.06,0,0,0,10-3.14,31.81,31.81,0,0,0,11.14,3.26l.27,0H96.32Zm-27.55-21a4.51,4.51,0,0,1,3-1.16c3.39,0,9.6,2.73,9.6,4.65s-6.21,4.65-9.6,4.65a4.49,4.49,0,0,1-3-1.16,11.38,11.38,0,0,0-1-1.36,4.47,4.47,0,0,1,0-4.26A11.38,11.38,0,0,0,68.77,34.51Zm-9.1-14a8,8,0,0,1,7.89,8,8.07,8.07,0,0,1-1.11,4.08,7.47,7.47,0,0,0-1.23,1.61,7.8,7.8,0,0,1-5.55,2.33,24.71,24.71,0,0,1-8.8-2.17c2.21-1.64,3.72-3.62,3.72-5.85s-1.51-4.22-3.72-5.86A24.89,24.89,0,0,1,59.67,20.46ZM52.08,38a33.43,33.43,0,0,0-4.29,1.78A33.43,33.43,0,0,0,43.5,38a32.11,32.11,0,0,0,4.29-1.79A32.11,32.11,0,0,0,52.08,38ZM47.79,24.17c2.23,1.34,3.8,2.87,3.8,4.31s-1.57,3-3.8,4.3c-2.23-1.34-3.8-2.87-3.8-4.3S45.56,25.51,47.79,24.17ZM35.91,20.46a24.89,24.89,0,0,1,8.8,2.16C42.51,24.26,41,26.24,41,28.48s1.52,4.21,3.72,5.85a24.71,24.71,0,0,1-8.8,2.17,8,8,0,0,1,0-16ZM23.62,42.65C20.23,42.65,14,39.91,14,38s6.2-4.65,9.59-4.65a4.65,4.65,0,0,1,0,9.3ZM35.91,55.54a8,8,0,0,1,0-16,24.89,24.89,0,0,1,8.8,2.16C42.51,43.31,41,45.29,41,47.52s1.52,4.21,3.72,5.86A24.89,24.89,0,0,1,35.91,55.54Zm11.88-3.72C45.56,50.49,44,49,44,47.52s1.57-3,3.8-4.3c2.23,1.33,3.8,2.86,3.8,4.3S50,50.49,47.79,51.82Zm11.88,3.72a24.89,24.89,0,0,1-8.8-2.16c2.21-1.65,3.72-3.62,3.72-5.86s-1.51-4.21-3.72-5.86a24.89,24.89,0,0,1,8.8-2.16,7.8,7.8,0,0,1,5.55,2.33,7.72,7.72,0,0,0,1.23,1.61,8.07,8.07,0,0,1,1.11,4.08A8,8,0,0,1,59.67,55.54Z"/><rect y="66" width="96.32" height="8"/></svg>